<svg width="52" height="52" viewBox="0 0 52 52" fill="none" xmlns="http://www.w3.org/2000/svg">
<path d="M26 0L50.7275 17.9656L41.2824 47.0344H10.7176L1.27253 17.9656L26 0Z" fill="#1565D8"/>
<path fill-rule="evenodd" clip-rule="evenodd" d="M19.3334 22.6667C18.8731 22.6667 18.5 23.0398 18.5 23.5V31.8333C18.5 32.2936 18.8731 32.6667 19.3334 32.6667H32.6667C33.1269 32.6667 33.5 32.2936 33.5 31.8333V23.5C33.5 23.0398 33.1269 22.6667 32.6667 22.6667H19.3334ZM16.8334 23.5C16.8334 22.1193 17.9527 21 19.3334 21H32.6667C34.0474 21 35.1667 22.1193 35.1667 23.5V31.8333C35.1667 33.2141 34.0474 34.3333 32.6667 34.3333H19.3334C17.9527 34.3333 16.8334 33.2141 16.8334 31.8333V23.5Z" fill="white"/>
<path fill-rule="evenodd" clip-rule="evenodd" d="M22.5656 18.3989C23.0344 17.9301 23.6703 17.6667 24.3334 17.6667H27.6667C28.3297 17.6667 28.9656 17.9301 29.4345 18.3989C29.9033 18.8677 30.1667 19.5036 30.1667 20.1667V33.5C30.1667 33.9602 29.7936 34.3333 29.3334 34.3333C28.8731 34.3333 28.5 33.9602 28.5 33.5V20.1667C28.5 19.9457 28.4122 19.7337 28.256 19.5774C28.0997 19.4211 27.8877 19.3333 27.6667 19.3333H24.3334C24.1124 19.3333 23.9004 19.4211 23.7441 19.5774C23.5878 19.7337 23.5 19.9457 23.5 20.1667V33.5C23.5 33.9602 23.1269 34.3333 22.6667 34.3333C22.2065 34.3333 21.8334 33.9602 21.8334 33.5V20.1667C21.8334 19.5036 22.0968 18.8677 22.5656 18.3989Z" fill="white"/>
</svg>
