<svg width="512" height="512" viewBox="0 0 512 512" fill="none" xmlns="http://www.w3.org/2000/svg">
<g clip-path="url(#clip0_348_2776)">
<path d="M156.6 384.9L125.7 354C117.2 345.5 114.2 333.2 118 321.8C121 312.9 125 301.3 129.8 288H24C15.4 288 7.39999 283.4 3.09999 275.9C-1.20001 268.4 -1.10001 259.2 3.29999 251.8L55.8 163.3C68.8 141.4 92.3 128 117.7 128H200C202.4 124 204.8 120.3 207.2 116.7C289.1 -4.10002 411.1 -8.10001 483.9 5.29999C495.5 7.39999 504.5 16.5 506.7 28.1C520.1 101 516 222.9 395.3 304.8C391.8 307.2 388 309.6 384 312V394.3C384 419.7 370.6 443.3 348.7 456.2L260.2 508.7C252.8 513.1 243.6 513.2 236.1 508.9C228.6 504.6 224 496.7 224 488V380.8C209.9 385.7 197.6 389.7 188.3 392.7C177.1 396.3 164.9 393.2 156.5 384.9H156.6ZM384 168C406.1 168 424 150.1 424 128C424 105.9 406.1 88 384 88C361.9 88 344 105.9 344 128C344 150.1 361.9 168 384 168Z" fill="url(#paint0_linear_348_2776)"/>
</g>
<defs>
<linearGradient id="paint0_linear_348_2776" x1="465" y1="-24" x2="57" y2="344" gradientUnits="userSpaceOnUse">
<stop stop-color="#FFC700"/>
<stop offset="0.354675" stop-color="#FFB300"/>
<stop offset="1" stop-color="#FF8D4D"/>
</linearGradient>
<clipPath id="clip0_348_2776">
<rect width="512" height="512" fill="white"/>
</clipPath>
</defs>
</svg>
