<svg width="200" height="200" viewBox="0 0 200 200" fill="none" xmlns="http://www.w3.org/2000/svg">
<g clip-path="url(#clip0_6161_101)">
<line x1="-0.854774" y1="201.148" x2="200.148" y2="0.145188" stroke="#F53838"/>
<line x1="-37.4166" y1="137.303" x2="237.158" y2="63.7309" stroke="#F53838"/>
<line x1="-23.3384" y1="171.632" x2="222.838" y2="29.5017" stroke="#F53838"/>
<line x1="-42.1302" y1="100.5" x2="242.13" y2="100.5" stroke="#F53838"/>
<line x1="-22.8384" y1="29.5019" x2="223.338" y2="171.632" stroke="#F53838"/>
<line x1="-37.1578" y1="63.7311" x2="237.417" y2="137.303" stroke="#F53838"/>
<line x1="-0.147667" y1="0.145226" x2="200.855" y2="201.148" stroke="#F53838"/>
<line x1="63.697" y1="-36.4166" x2="137.269" y2="238.158" stroke="#F53838"/>
<line x1="29.3679" y1="-22.3384" x2="171.498" y2="223.838" stroke="#F53838"/>
<line x1="100.5" y1="-41.1302" x2="100.5" y2="243.13" stroke="#F53838"/>
<line x1="171.498" y1="-21.8384" x2="29.3678" y2="224.338" stroke="#F53838"/>
<line x1="137.269" y1="-36.1578" x2="63.6969" y2="238.417" stroke="#F53838"/>
<line x1="-7.1888" y1="194.337" x2="206.53" y2="6.91104" stroke="#F53838"/>
<line x1="-39.4967" y1="128.238" x2="239.302" y2="72.7812" stroke="#F53838"/>
<line x1="-27.6938" y1="163.414" x2="227.252" y2="37.6887" stroke="#F53838"/>
<line x1="-41.7932" y1="91.2053" x2="241.859" y2="109.797" stroke="#F53838"/>
<line x1="-17.8992" y1="21.621" x2="218.455" y2="179.548" stroke="#F53838"/>
<line x1="-34.4266" y1="54.8404" x2="234.748" y2="146.213" stroke="#F53838"/>
<line x1="6.66297" y1="-6.1888" x2="194.089" y2="207.53" stroke="#F53838"/>
<line x1="72.7622" y1="-38.4967" x2="128.219" y2="240.302" stroke="#F53838"/>
<line x1="37.5859" y1="-26.6939" x2="163.311" y2="228.252" stroke="#F53838"/>
<line x1="109.795" y1="-40.7932" x2="91.2032" y2="242.859" stroke="#F53838"/>
<line x1="179.379" y1="-16.8992" x2="21.4524" y2="219.455" stroke="#F53838"/>
<line x1="146.16" y1="-33.4267" x2="54.7871" y2="235.748" stroke="#F53838"/>
<line x1="5.91119" y1="207.529" x2="193.337" y2="-6.18886" stroke="#F53838"/>
<line x1="-34.7481" y1="146.213" x2="234.427" y2="54.8403" stroke="#F53838"/>
<line x1="-18.4547" y1="179.547" x2="217.899" y2="21.6208" stroke="#F53838"/>
<line x1="-41.8585" y1="109.797" x2="241.793" y2="91.2053" stroke="#F53838"/>
<line x1="-27.2515" y1="37.689" x2="227.694" y2="163.414" stroke="#F53838"/>
<line x1="-39.3016" y1="72.7816" x2="239.497" y2="128.238" stroke="#F53838"/>
<line x1="-6.5294" y1="6.91119" x2="207.189" y2="194.337" stroke="#F53838"/>
<line x1="54.7872" y1="-33.7481" x2="146.16" y2="235.427" stroke="#F53838"/>
<line x1="21.4525" y1="-17.4547" x2="179.379" y2="218.899" stroke="#F53838"/>
<line x1="91.2032" y1="-40.8586" x2="109.795" y2="242.793" stroke="#F53838"/>
<line x1="163.311" y1="-26.2515" x2="37.5858" y2="228.694" stroke="#F53838"/>
<line x1="128.219" y1="-38.3016" x2="72.7621" y2="240.497" stroke="#F53838"/>
<line x1="-13.0638" y1="187.127" x2="212.455" y2="14.08" stroke="#F53838"/>
<line x1="-40.9794" y1="119.056" x2="240.849" y2="81.9524" stroke="#F53838"/>
<line x1="-31.5025" y1="154.929" x2="231.12" y2="46.1469" stroke="#F53838"/>
<line x1="-40.8489" y1="81.9525" x2="240.98" y2="119.056" stroke="#F53838"/>
<line x1="-12.4551" y1="14.0799" x2="213.064" y2="187.127" stroke="#F53838"/>
<line x1="-31.1198" y1="46.1472" x2="231.503" y2="154.929" stroke="#F53838"/>
<line x1="13.8734" y1="-12.0639" x2="186.92" y2="213.455" stroke="#F53838"/>
<line x1="81.944" y1="-39.9796" x2="119.047" y2="241.849" stroke="#F53838"/>
<line x1="46.0711" y1="-30.5026" x2="154.853" y2="232.12" stroke="#F53838"/>
<line x1="119.047" y1="-39.849" x2="81.944" y2="241.979" stroke="#F53838"/>
<line x1="186.92" y1="-11.4551" x2="13.8732" y2="214.064" stroke="#F53838"/>
<line x1="154.853" y1="-30.1199" x2="46.071" y2="232.502" stroke="#F53838"/>
<line x1="-7.1888" y1="194.337" x2="206.529" y2="6.91104" stroke="#F53838"/>
<line x1="-39.4967" y1="128.238" x2="239.302" y2="72.7812" stroke="#F53838"/>
<line x1="-27.6938" y1="163.414" x2="227.252" y2="37.6887" stroke="#F53838"/>
<line x1="-41.7932" y1="91.2053" x2="241.859" y2="109.797" stroke="#F53838"/>
<line x1="-17.8992" y1="21.621" x2="218.455" y2="179.548" stroke="#F53838"/>
<line x1="-34.4266" y1="54.8404" x2="234.748" y2="146.213" stroke="#F53838"/>
<line x1="6.66297" y1="-6.1888" x2="194.089" y2="207.529" stroke="#F53838"/>
<line x1="72.7622" y1="-38.4967" x2="128.219" y2="240.302" stroke="#F53838"/>
<line x1="37.5858" y1="-26.6939" x2="163.311" y2="228.251" stroke="#F53838"/>
<line x1="109.795" y1="-40.7932" x2="91.2032" y2="242.859" stroke="#F53838"/>
<line x1="179.379" y1="-16.8992" x2="21.4524" y2="219.455" stroke="#F53838"/>
<line x1="146.16" y1="-33.4267" x2="54.7871" y2="235.748" stroke="#F53838"/>
<line x1="5.91119" y1="207.529" x2="193.337" y2="-6.18884" stroke="#F53838"/>
<line x1="-34.7481" y1="146.213" x2="234.427" y2="54.8403" stroke="#F53838"/>
<line x1="-18.4547" y1="179.547" x2="217.899" y2="21.6208" stroke="#F53838"/>
<line x1="-41.8585" y1="109.797" x2="241.793" y2="91.2053" stroke="#F53838"/>
<line x1="-27.2515" y1="37.689" x2="227.694" y2="163.414" stroke="#F53838"/>
<line x1="-39.3016" y1="72.7815" x2="239.497" y2="128.238" stroke="#F53838"/>
<line x1="-6.5294" y1="6.91119" x2="207.189" y2="194.337" stroke="#F53838"/>
<line x1="54.7872" y1="-33.7481" x2="146.16" y2="235.427" stroke="#F53838"/>
<line x1="21.4525" y1="-17.4547" x2="179.379" y2="218.899" stroke="#F53838"/>
<line x1="91.2032" y1="-40.8586" x2="109.795" y2="242.793" stroke="#F53838"/>
<line x1="163.311" y1="-26.2515" x2="37.5859" y2="228.694" stroke="#F53838"/>
<line x1="128.219" y1="-38.3016" x2="72.7621" y2="240.497" stroke="#F53838"/>
</g>
<defs>
<clipPath id="clip0_6161_101">
<rect width="200" height="200" fill="white"/>
</clipPath>
</defs>
</svg>
