<svg width="72" height="72" viewBox="0 0 72 72" fill="none" xmlns="http://www.w3.org/2000/svg">
<path fill-rule="evenodd" clip-rule="evenodd" d="M4.84615 11H9V15.1667H4.84615V11ZM0 30.4444H4.15385V34.6111H0V30.4444ZM16.4335 15.2292H13.1274V11H48.4615V46.3969C46.2975 48.2612 44.8997 50.9956 44.8101 54.0556H27.05C26.8847 48.409 22.263 43.8656 16.6017 43.8656C10.9403 43.8656 6.31864 48.4088 6.15331 54.0556H0V40.1199H11.7695C13.2731 40.1199 14.4964 38.8915 14.4964 37.3814C14.4964 35.8712 13.2731 34.6425 11.7695 34.6425H8.34462V30.4135H26.2659C27.7695 30.4135 28.9928 29.1848 28.9928 27.6746C28.9928 26.1644 27.7695 24.9358 26.2659 24.9358H0V20.7067H16.6017C18.1053 20.7067 19.3284 19.4782 19.3284 17.968C19.3284 16.509 17.9756 15.2292 16.4335 15.2292ZM49.1538 54.75C49.1538 51.3038 51.949 48.5 55.3846 48.5C58.8202 48.5 61.6154 51.3038 61.6154 54.75C61.6154 58.1962 58.8202 61 55.3846 61C51.949 61 49.1538 58.1962 49.1538 54.75ZM53.2844 56.8567H57.4849V52.6433H53.2844V56.8567ZM52.6154 15.8611H61.0622L70.6154 30.4444H52.6154V15.8611ZM52.6154 34.6111V44.1754C53.4514 43.9628 54.3266 43.8493 55.2283 43.8493C60.9476 43.8493 65.6166 48.3999 65.7837 54.0556H72V34.6111H52.6154ZM16.6154 48.5C13.1798 48.5 10.3846 51.3038 10.3846 54.75C10.3846 58.1962 13.1798 61 16.6154 61C20.051 61 22.8462 58.1962 22.8462 54.75C22.8462 51.3038 20.051 48.5 16.6154 48.5ZM18.7156 56.8567H14.5151V52.6433H18.7156V56.8567Z" fill="#FDD6BA"/>
</svg>
